#!OML:ASF X:\für Bonn\!DataBase\2005_08_11_Bastian_Final\c3d\Bastian.ASF
:FULLY-SPECIFIED
:DEGREES
161
root -0.415211 10.6164 20.9856 -922.075 -33.226 -165.537
lowerback 74.5316 5.29559 2.56903
upperback 21.0893 -6.63124 -2.16839
thorax 2.99664 -7.5446 -1.34754
lowerneck -11.6827 -11.3849 -11.0379
upperneck -24.1443 -14.1841 29.769
head -1.68932 -9.94689 10.8906
rclavicle -5.08889e-014 -1.04561e-013
rhumerus 5.15999 17.2737 -63.8614
rradius 54.3411
rwrist -3.43571
rhand -15.491 8.30482
rfingers 7.12502
rthumb 10.6912 -21.4032
lclavicle -5.08889e-014 -1.04561e-013
lhumerus 20.3781 25.4041 53.9406
lradius 10.5384
lwrist 6.21513
lhand -21.9206 -3.5119
lfingers 7.12502
lthumb 4.48541 26.4206
rfemur -59.2221 -26.7946 35.2892
rtibia 114.854
rfoot -35.7745 -11.5363
rtoes 2.00194
lfemur -71.0036 8.27016 -17.4372
ltibia 108.18
lfoot -15.1101 -16.6787
ltoes 9.09805
162
root -0.451313 10.4497 21.0004 -922.444 -32.9203 -165.409
lowerback 74.4486 5.32574 2.62718
upperback 21.1966 -6.66108 -2.19814
thorax 3.108 -7.58918 -1.40943
lowerneck -11.528 -11.3461 -11.1687
upperneck -24.1108 -14.1167 29.908
head -1.68595 -9.91676 10.9763
rclavicle -2.54444e-014 -1.89641e-013
rhumerus 5.1728 17.5693 -63.6357
rradius 54.2169
rwrist -3.88395
rhand -15.5464 8.32715
rfingers 7.12502
rthumb 10.6377 -21.3836
lclavicle -2.54444e-014 -1.89641e-013
lhumerus 20.8581 28.1751 55.1087
lradius 10.0616
lwrist 4.05753
lhand -21.7989 -3.53792
lfingers 7.12502
lthumb 4.603 26.3921
rfemur -59.8484 -27.0952 35.3441
rtibia 116.242
rfoot -36.1568 -11.4446
rtoes 1.85111
lfemur -71.8307 8.70143 -17.6086
ltibia 109.625
lfoot -15.4497 -16.7404
ltoes 9.81379
163
root -0.489997 10.2824 21.0155 -922.798 -32.6018 -165.3
lowerback 74.3039 5.36568 2.68281
upperback 21.3428 -6.69287 -2.23778
thorax 3.25721 -7.63633 -1.48588
lowerneck -11.4207 -11.2819 -11.2362
upperneck -24.0604 -14.0254 30.0132
head -1.68525 -9.87458 11.0401
rclavicle -2.22639e-014 -7.59357e-014
rhumerus 5.23492 17.931 -63.3834
rradius 54.06
rwrist -4.45246
rhand -15.6971 8.3225
rfingers 7.12502
rthumb 10.4923 -21.3956
lclavicle -2.22639e-014 -7.59357e-014
lhumerus 20.9093 28.6498 55.2992
lradius 9.61172
lwrist 4.2985
lhand -21.9809 -3.32486
lfingers 7.12502
lthumb 4.42718 26.6089
rfemur -60.4563 -27.3708 35.3707
rtibia 117.616
rfoot -36.5203 -11.4056
rtoes 1.65598
lfemur -72.6654 9.13514 -17.8057
ltibia 111.057
lfoot -15.7765 -16.8133
ltoes 10.8038
164
root -0.528942 10.1162 21.0323 -923.176 -32.2802 -165.17
lowerback 74.1929 5.37167 2.75129
upperback 21.4398 -6.73138 -2.27622
thorax 3.35136 -7.68059 -1.55643
lowerneck -11.2486 -11.2163 -11.3658
upperneck -23.9995 -13.9227 30.1501
head -1.68431 -9.82274 11.1301
rclavicle -3.18055e-015 -5.96354e-015
rhumerus 5.24674 18.4343 -63.0443
rradius 53.9825
rwrist -5.26794
rhand -15.8685 8.29488
rfingers 7.12502
rthumb 10.327 -21.4316
lclavicle -3.18055e-015 -5.96354e-015
lhumerus 20.8575 29.0915 55.5176
lradius 9.16192
lwrist 4.46232
lhand -22.2756 -3.08987
lfingers 7.12502
lthumb 4.14267 26.8496
rfemur -61.0627 -27.6631 35.4088
rtibia 118.971
rfoot -36.8486 -11.3399
rtoes 1.53431
lfemur -73.4862 9.57547 -18.0057
ltibia 112.469
lfoot -16.088 -16.8672
ltoes 11.511
165
root -0.569406 9.94912 21.0491 -923.549 -31.9476 -165.058
lowerback 74.0489 5.4032 2.81097
upperback 21.5494 -6.74912 -2.2918
thorax 3.46079 -7.72155 -1.60734
lowerneck -11.1243 -11.1444 -11.4546
upperneck -23.9087 -13.8218 30.2258
head -1.67881 -9.76424 11.1871
rclavicle -4.45278e-014 -8.38871e-014
rhumerus 5.26897 18.9716 -62.6065
rradius 53.9071
rwrist -6.12383
rhand -16.0997 8.23912
rfingers 7.12502
rthumb 10.104 -21.4983
lclavicle -4.45278e-014 -8.38871e-014
lhumerus 20.7571 29.5252 55.7666
lradius 8.77479
lwrist 4.5824
lhand -22.4411 -2.75575
lfingers 7.12502
lthumb 3.9828 27.1868
rfemur -61.6592 -27.9639 35.4223
rtibia 120.309
rfoot -37.1729 -11.2506
rtoes 1.43465
lfemur -74.3188 10.0438 -18.2431
ltibia 113.861
lfoot -16.3798 -16.914
ltoes 12.474
166
root -0.611064 9.78292 21.0663 -923.957 -31.6061 -164.938
lowerback 73.9256 5.42202 2.90512
upperback 21.6634 -6.76588 -2.316
thorax 3.57561 -7.76001 -1.68314
lowerneck -11.054 -11.0812 -11.4878
upperneck -23.7875 -13.742 30.2896
head -1.65826 -9.71504 11.2211
rclavicle 0 1.5863e-013
rhumerus 5.29897 19.5155 -62.1978
rradius 53.8124
rwrist -7.01839
rhand -16.3049 8.13158
rfingers 7.12502
rthumb 9.90602 -21.6154
lclavicle 0 1.5863e-013
lhumerus 20.6581 29.9306 56.0341
lradius 8.43588
lwrist 4.636
lhand -22.6121 -2.18126
lfingers 7.12502
lthumb 3.81767 27.7643
rfemur -62.2065 -28.2886 35.4208
rtibia 121.633
rfoot -37.476 -11.1742
rtoes 1.27886
lfemur -75.1044 10.5009 -18.4821
ltibia 115.236
lfoot -16.7164 -16.9042
ltoes 13.0158
167
root -0.653416 9.61723 21.0845 -924.395 -31.2432 -164.789
lowerback 73.8196 5.43804 2.9979
upperback 21.7435 -6.77338 -2.32641
thorax 3.65421 -7.79451 -1.74139
lowerneck -10.9562 -11.0259 -11.5931
upperneck -23.6396 -13.6649 30.3992
head -1.62129 -9.66113 11.2816
rclavicle 1.27222e-013 3.57812e-015
rhumerus 5.29082 20.0779 -61.8134
rradius 53.6756
rwrist -7.80399
rhand -16.5145 8.11091
rfingers 7.12502
rthumb 9.70378 -21.6456
lclavicle 1.27222e-013 3.57812e-015
lhumerus 20.4733 30.323 56.3352
lradius 8.09714
lwrist 4.65297
lhand -22.7989 -1.46868
lfingers 7.12502
lthumb 3.63733 28.48
rfemur -62.7357 -28.6191 35.4413
rtibia 122.928
rfoot -37.7708 -11.1275
rtoes 0.975862
lfemur -75.888 10.9847 -18.7011
ltibia 116.588
lfoot -16.9896 -16.9197
ltoes 13.9166
168
root -0.697568 9.45233 21.1032 -924.843 -30.8592 -164.64
lowerback 73.7061 5.45733 3.10297
upperback 21.8263 -6.77117 -2.32693
thorax 3.7365 -7.82656 -1.79757
lowerneck -10.9496 -10.9765 -11.6372
upperneck -23.4429 -13.6109 30.4583
head -1.56308 -9.61111 11.3009
rclavicle 1.30403e-013 7.23576e-014
rhumerus 5.28289 20.6866 -61.3978
rradius 53.5588
rwrist -8.59058
rhand -16.7704 7.9902
rfingers 7.12502
rthumb 9.45685 -21.7776
lclavicle 1.30403e-013 7.23576e-014
lhumerus 20.2456 30.7084 56.6735
lradius 7.83765
lwrist 4.73666
lhand -22.9584 -0.559874
lfingers 7.12502
lthumb 3.48328 29.3914
rfemur -63.2522 -28.9565 35.4512
rtibia 124.198
rfoot -38.0166 -11.0106
rtoes 0.934619
lfemur -76.6571 11.4715 -18.9209
ltibia 117.924
lfoot -17.2469 -16.9087
ltoes 14.8163
169
root -0.742999 9.28941 21.1221 -925.311 -30.4604 -164.48
lowerback 73.6053 5.46483 3.23797
upperback 21.9157 -6.77032 -2.33964
thorax 3.8255 -7.85651 -1.88016
lowerneck -11.004 -10.9172 -11.5775
upperneck -23.2119 -13.5604 30.4427
head -1.50336 -9.55928 11.2703
rclavicle 3.81667e-014 6.91771e-014
rhumerus 5.24104 21.1959 -61.0622
rradius 53.42
rwrist -9.2167
rhand -16.9136 7.92773
rfingers 7.12502
rthumb 9.31869 -21.8463
lclavicle 3.81667e-014 6.91771e-014
lhumerus 20.0345 31.0792 57.0296
lradius 7.55287
lwrist 4.89615
lhand -23.1562 0.384261
lfingers 7.12502
lthumb 3.29225 30.3386
rfemur -63.7226 -29.3207 35.452
rtibia 125.433
rfoot -38.2799 -10.9148
rtoes 0.714514
lfemur -77.3941 11.9741 -19.1534
ltibia 119.234
lfoot -17.5233 -16.8435
ltoes 15.5091
170
root -0.78952 9.12779 21.1411 -925.786 -30.0447 -164.307
lowerback 73.5118 5.49163 3.35991
upperback 21.9746 -6.74197 -2.31095
thorax 3.88618 -7.87985 -1.91689
lowerneck -10.9574 -10.8265 -11.5252
upperneck -23.0464 -13.464 30.3637
head -1.49624 -9.48875 11.2399
rclavicle -1.04958e-013 -1.2921e-013
rhumerus 5.17781 21.7657 -60.6837
rradius 53.2826
rwrist -9.8448
rhand -17.0197 7.86026
rfingers 7.12502
rthumb 9.21637 -21.9183
lclavicle -1.04958e-013 -1.2921e-013
lhumerus 19.7346 31.4372 57.4568
lradius 7.28462
lwrist 5.19831
lhand -23.4278 1.23507
lfingers 7.12502
lthumb 3.02995 31.1933
rfemur -64.1936 -29.7056 35.481
rtibia 126.642
rfoot -38.481 -10.8793
rtoes 0.378779
lfemur -78.1352 12.4831 -19.3768
ltibia 120.518
lfoot -17.767 -16.7836
ltoes 16.3779
171
root -0.836782 8.96773 21.1613 -926.311 -29.6222 -164.125
lowerback 73.4704 5.51116 3.5075
upperback 22.019 -6.70934 -2.27177
thorax 3.93631 -7.90328 -1.95247
lowerneck -10.9068 -10.723 -11.3676
upperneck -22.87 -13.3658 30.1566
head -1.51244 -9.41319 11.1482
rclavicle 8.26944e-014 -1.59028e-014
rhumerus 5.12253 22.2887 -60.3586
rradius 53.0944
rwrist -10.2886
rhand -17.0438 7.72901
rfingers 7.12502
rthumb 9.19312 -22.0506
lclavicle 8.26944e-014 -1.59028e-014
lhumerus 19.3981 31.7686 57.9071
lradius 6.98425
lwrist 5.76605
lhand -23.8238 1.7393
lfingers 7.12502
lthumb 2.64751 31.7026
rfemur -64.6037 -30.135 35.4714
rtibia 127.825
rfoot -38.6809 -10.7537
rtoes 0.330812
lfemur -78.8135 12.9727 -19.588
ltibia 121.772
lfoot -18.0109 -16.6894
ltoes 17.1052
172
root -0.885819 8.80978 21.181 -926.869 -29.1721 -163.941
lowerback 73.4416 5.52943 3.68049
upperback 22.0621 -6.66657 -2.24182
thorax 3.98456 -7.92021 -2.01217
lowerneck -10.9243 -10.6509 -11.256
upperneck -22.6371 -13.3082 29.9753
head -1.48517 -9.34559 11.057
rclavicle -2.22639e-014 -3.02153e-014
rhumerus 5.06549 22.7718 -60.1251
rradius 52.8362
rwrist -10.6545
rhand -17.0141 7.64262
rfingers 7.12502
rthumb 9.22177 -22.1357
lclavicle -2.22639e-014 -3.02153e-014
lhumerus 18.9503 32.0877 58.3335
lradius 6.70008
lwrist 6.53363
lhand -24.285 1.78517
lfingers 7.12502
lthumb 2.20208 31.7535
rfemur -64.9264 -30.5916 35.4303
rtibia 128.967
rfoot -38.8849 -10.6444
rtoes -0.0255183
lfemur -79.4507 13.4941 -19.7977
ltibia 123.012
lfoot -18.2497 -16.5584
ltoes 17.8519
173
root -0.935398 8.65207 21.2012 -927.413 -28.7354 -163.768
lowerback 73.3794 5.54461 3.8511
upperback 22.1176 -6.6262 -2.19615
thorax 4.04668 -7.94098 -2.05437
lowerneck -10.976 -10.602 -11.1674
upperneck -22.3801 -13.283 29.777
head -1.43883 -9.28644 10.9549
rclavicle 6.67916e-014 3.81667e-014
rhumerus 4.98077 23.1892 -59.9558
rradius 52.6067
rwrist -10.9135
rhand -16.8889 7.47169
rfingers 7.12502
rthumb 9.34252 -22.3013
lclavicle 6.67916e-014 3.81667e-014
lhumerus 18.4988 32.4007 58.8522
lradius 6.3557
lwrist 7.59505
lhand -24.8943 1.18031
lfingers 7.12502
lthumb 1.61363 31.154
rfemur -65.2792 -31.066 35.3723
rtibia 130.094
rfoot -39.0564 -10.5072
rtoes -0.215749
lfemur -80.0936 13.9765 -20.0366
ltibia 124.22
lfoot -18.4769 -16.4091
ltoes 18.6121
174
root -0.986212 8.4953 21.2199 -927.984 -28.2536 -163.607
lowerback 73.3369 5.58617 4.01819
upperback 22.1571 -6.56136 -2.14986
thorax 4.09254 -7.95265 -2.10116
lowerneck -11.0252 -10.5606 -11.0344
upperneck -22.0481 -13.275 29.524
head -1.37768 -9.2232 10.8191
rclavicle -9.85972e-014 1.59028e-014
rhumerus 4.83615 23.6442 -59.8186
rradius 52.3618
rwrist -11.0616
rhand -16.7428 7.33677
rfingers 7.12502
rthumb 9.48352 -22.4298
lclavicle -9.85972e-014 1.59028e-014
lhumerus 17.9334 32.6935 59.3564
lradius 5.98514
lwrist 8.8179
lhand -25.5525 -0.0802264
lfingers 7.12502
lthumb 0.977945 29.8973
rfemur -65.5557 -31.5507 35.2894
rtibia 131.202
rfoot -39.2132 -10.3828
rtoes -0.421816
lfemur -80.6879 14.5133 -20.2818
ltibia 125.416
lfoot -18.7044 -16.2164
ltoes 19.2565
175
root -1.03787 8.34188 21.239 -928.555 -27.7982 -163.501
lowerback 73.283 5.64345 4.17243
upperback 22.2224 -6.50088 -2.08252
thorax 4.17179 -7.97581 -2.12278
lowerneck -11.0583 -10.5181 -10.8704
upperneck -21.7684 -13.269 29.1965
head -1.3459 -9.16545 10.6592
rclavicle 9.54166e-014 -3.65764e-014
rhumerus 4.68437 24.086 -59.7012
rradius 52.121
rwrist -11.1945
rhand -16.6194 7.20875
rfingers 7.12502
rthumb 9.60256 -22.5524
lclavicle 9.54166e-014 -3.65764e-014
lhumerus 17.387 32.9813 59.9552
lradius 5.54634
lwrist 10.1666
lhand -26.224 -2.00412
lfingers 7.12502
lthumb 0.32942 27.9754
rfemur -65.7836 -32.136 35.1024
rtibia 132.285
rfoot -39.3797 -10.2193
rtoes -0.638028
lfemur -81.2082 14.9809 -20.5697
ltibia 126.564
lfoot -18.954 -15.9806
ltoes 19.895
